<svg width="20" height="20" viewBox="0 0 20 20" fill="none" xmlns="http://www.w3.org/2000/svg">
<path fill-rule="evenodd" clip-rule="evenodd" d="M16.704 4.15303C16.7825 4.21266 16.8486 4.28719 16.8983 4.37236C16.948 4.45753 16.9804 4.55166 16.9937 4.64938C17.007 4.74709 17.0008 4.84646 16.9757 4.94181C16.9505 5.03716 16.9068 5.1266 16.847 5.20503L8.847 15.705C8.78211 15.7901 8.69977 15.8603 8.60552 15.9109C8.51126 15.9615 8.40727 15.9913 8.30053 15.9984C8.19379 16.0056 8.08676 15.9897 7.98663 15.9521C7.8865 15.9144 7.79559 15.8557 7.72 15.78L3.22 11.28C3.08752 11.1379 3.0154 10.9498 3.01882 10.7555C3.02225 10.5612 3.10096 10.3758 3.23838 10.2384C3.37579 10.101 3.56118 10.0223 3.75548 10.0189C3.94978 10.0154 4.13782 10.0876 4.28 10.22L8.174 14.113L15.654 4.29603C15.7744 4.13799 15.9526 4.03416 16.1494 4.00735C16.3463 3.98054 16.5457 4.03294 16.704 4.15303Z" fill="#4F46E5"/>
</svg>
